<?xml version="1.0" encoding="UTF-8"?><svg id="_レイヤー_1" xmlns="http://www.w3.org/2000/svg" xmlns:xlink="http://www.w3.org/1999/xlink" viewBox="0 0 396.85 120.64"><defs><style>.cls-1{fill:url(#_名称未設定グラデーション_2);}.cls-2{fill:#e74a4a;}</style><linearGradient id="_名称未設定グラデーション_2" x1="47.12" y1="134.8" x2="44.85" y2="175.87" gradientTransform="translate(0 219.04) scale(1 -1)" gradientUnits="userSpaceOnUse"><stop offset="0" stop-color="#ff9a9a"/><stop offset="1" stop-color="#e74a4a"/></linearGradient></defs><path class="cls-2" d="M115.01,88.23c-4.03,0-7.68-.79-10.95-2.33-3.27-1.54-6.07-3.65-8.46-6.32s-4.22-5.66-5.51-9c-1.29-3.34-1.95-6.76-1.95-10.29s.69-7.17,2.05-10.51c1.38-3.34,3.27-6.32,5.66-8.94,2.39-2.61,5.25-4.69,8.59-6.2,3.3-1.54,6.92-2.3,10.79-2.3s7.62.82,10.92,2.42c3.27,1.6,6.1,3.74,8.43,6.45,2.33,2.71,4.12,5.7,5.38,9,1.26,3.3,1.89,6.73,1.89,10.26s-.66,7.11-1.98,10.45c-1.32,3.34-3.18,6.32-5.6,8.94-2.42,2.61-5.25,4.66-8.53,6.17-3.27,1.51-6.86,2.27-10.76,2.27l.03-.06ZM99.02,60.29c0,2.39.35,4.69,1.1,6.89.72,2.23,1.76,4.22,3.15,5.95,1.38,1.73,3.05,3.12,5.03,4.12,1.98,1.01,4.25,1.51,6.8,1.51s4.94-.53,6.92-1.6c1.95-1.07,3.65-2.49,5-4.22,1.38-1.76,2.39-3.74,3.05-5.98.66-2.23,1.01-4.44,1.01-6.67,0-2.39-.38-4.66-1.1-6.86-.72-2.2-1.79-4.15-3.18-5.92-1.38-1.73-3.08-3.12-5.03-4.12-1.98-1.01-4.22-1.51-6.77-1.51s-4.81.53-6.8,1.6c-1.98,1.07-3.68,2.45-5.03,4.18-1.38,1.73-2.39,3.71-3.12,5.92-.72,2.2-1.04,4.44-1.04,6.7Z"/><path class="cls-2" d="M183.74,86.41h-10.4v-22.49c0-3.21-.57-5.56-1.67-7.04-1.1-1.48-2.69-2.21-4.76-2.21-1.39,0-2.8.34-4.22,1.05-1.42.71-2.69,1.67-3.8,2.92s-1.98,2.67-2.61,4.28v23.49h-10.31v-40.28h9.38v7.52c1.02-1.73,2.35-3.21,3.97-4.37,1.61-1.19,3.43-2.1,5.5-2.75s4.28-.99,6.66-.99c2.52,0,4.62.45,6.23,1.33,1.61.88,2.86,2.1,3.71,3.66.85,1.53,1.44,3.23,1.78,5.11.34,1.87.51,3.74.51,5.65v25.16l.03-.03Z"/><path class="cls-2" d="M299.43,46.73v3.56c3.37-3.56,5.54-4.69,9.09-4.69,2.8,0,4.5.57,7.58,2.45l-4.22,8.34c-2.08-1.51-3.18-1.98-5.07-1.98-5.07,0-7.39,3.56-7.39,11.33v20.45h-9.09v-39.46h9.09Z"/><path class="cls-2" d="M353.64,33.48v52.7h-9.09v-4.12c-3.84,3.74-7.39,5.35-12.18,5.35-10.79,0-18.75-8.9-18.75-20.99s7.96-20.7,18.56-20.7c4.97,0,8.53,1.6,12.37,5.63v-17.84h9.09v-.03ZM322.87,66.33c0,7.58,4.5,12.93,10.89,12.93,6.73,0,11.33-5.16,11.33-12.65s-4.59-12.74-11.23-12.74c-6.29,0-10.98,5.35-10.98,12.46Z"/><path class="cls-2" d="M373.33,58.69c-1.23-2.45-2.45-3.56-4.19-3.56-1.57,0-2.8,1.2-2.8,2.74,0,1.64.98,2.45,4.91,4.37,3.68,1.82,5.35,2.74,6.99,3.9,2.96,2.08,4.47,5,4.47,8.65,0,7.27-5.76,12.9-13.12,12.9-6.2,0-10.57-3.18-13.12-9.47l7.27-3.46c2.01,3.81,3.4,5,5.95,5s4.37-1.64,4.37-4.09-.53-2.89-8.5-7.02c-5.41-2.74-7.17-5.19-7.17-9.91,0-6.64,4.91-11.55,11.45-11.55,4.81,0,8.06,2.36,10.48,7.55l-6.99,3.9v.03Z"/><path class="cls-2" d="M287.04,66.63c0,11.8-9.19,20.89-21.18,20.89s-20.89-9.19-20.89-21.18c0-11.33,9.38-20.52,20.99-20.52s21.08,9.09,21.08,20.8ZM254.22,66.54c0,7.77,4.59,12.84,11.71,12.84s11.8-5.07,11.8-12.65-4.69-12.74-11.8-12.74-11.71,5.07-11.71,12.55Z"/><polygon class="cls-2" points="207.49 72.16 195.09 47.62 184.56 47.62 204.26 86.6 210.57 86.6 215.29 77.74 210.05 67.4 207.49 72.16"/><polygon class="cls-2" points="237.35 47.62 225.05 72.02 212.76 47.62 202.25 47.62 221.89 86.6 228.22 86.6 247.86 47.62 237.35 47.62"/><path class="cls-1" d="M39.18,46.41c1.85-3.42,6.13-4.7,9.55-2.85h0c3.51,1.89,4.75,6.35,2.72,9.78l-6.37,10.81c.36.09.73.19,1.11.28,2.68.68,5.48-.46,6.93-2.8l8.32-13.47c2.04-3.32,6.39-4.34,9.7-2.29h-.02c3.4,2.08,4.38,6.62,2.14,9.92l-13.93,20.67-.88,1.3c-1.59,2.36-4.78,2.98-7.13,1.39-.21-.15-.43-.32-.62-.49l-9.17-8.5-3.6,6.11-.86,1.46c-1.64,2.87-5.75,3.38-8.06,1.02l-11.37-11.38c-1.63-1.64-.05-4.4,2.17-3.85,0,0,2.64.64,5.75,1.41,1.88.46,3.83-.41,4.75-2.11l8.87-16.41Z"/><path class="cls-2" d="M21.05,61.41c3.81,0,6.9-3.09,6.9-6.9s-3.09-6.9-6.9-6.9-6.9,3.09-6.9,6.9,3.09,6.9,6.9,6.9Z"/></svg>