<?xml version="1.0" encoding="UTF-8"?>
<svg xmlns="http://www.w3.org/2000/svg" xmlns:xlink="http://www.w3.org/1999/xlink" width="48px" height="48px" viewBox="0 0 48 48" version="1.1">
<defs>
<linearGradient id="linear0" gradientUnits="userSpaceOnUse" x1="214.100006" y1="-67.220001" x2="203.690002" y2="121.029999" gradientTransform="matrix(0.120952,0,0,-0.120952,0,27.383645)">
<stop offset="0" style="stop-color:rgb(100%,60.392157%,60.392157%);stop-opacity:1;"/>
<stop offset="1" style="stop-color:rgb(90.588235%,29.019608%,29.019608%);stop-opacity:1;"/>
</linearGradient>
</defs>
<g id="surface1">
<path style=" stroke:none;fill-rule:nonzero;fill:url(#linear0);" d="M 21.496094 14.539062 C 22.519531 12.644531 24.894531 11.9375 26.789062 12.960938 L 26.785156 12.960938 C 28.730469 14.011719 29.417969 16.480469 28.292969 18.382812 L 24.761719 24.375 C 24.960938 24.425781 25.167969 24.480469 25.375 24.53125 C 26.863281 24.90625 28.414062 24.277344 29.21875 22.980469 L 33.832031 15.507812 C 34.964844 13.671875 37.375 13.105469 39.210938 14.238281 L 39.203125 14.234375 C 41.085938 15.390625 41.628906 17.910156 40.386719 19.742188 L 32.664062 31.203125 L 32.179688 31.929688 C 31.300781 33.234375 29.527344 33.578125 28.222656 32.699219 C 28.109375 32.617188 27.984375 32.519531 27.878906 32.425781 L 22.796875 27.710938 L 20.800781 31.097656 L 20.320312 31.910156 C 19.410156 33.5 17.128906 33.785156 15.855469 32.476562 L 9.550781 26.164062 C 8.644531 25.253906 9.523438 23.726562 10.753906 24.027344 C 10.753906 24.027344 12.21875 24.386719 13.945312 24.808594 C 14.988281 25.0625 16.070312 24.582031 16.578125 23.640625 Z M 21.496094 14.539062 "/>
<path style=" stroke:none;fill-rule:nonzero;fill:rgb(90.588236%,29.019609%,29.019609%);fill-opacity:1;" d="M 11.441406 22.855469 C 13.554688 22.855469 15.269531 21.140625 15.269531 19.027344 C 15.269531 16.910156 13.554688 15.199219 11.441406 15.199219 C 9.324219 15.199219 7.613281 16.910156 7.613281 19.027344 C 7.613281 21.140625 9.324219 22.855469 11.441406 22.855469 Z M 11.441406 22.855469 "/>
</g>
</svg>
