<svg width="30" height="30" xmlns="http://www.w3.org/2000/svg" xmlns:xlink="http://www.w3.org/1999/xlink" xml:space="preserve" overflow="hidden"><defs><clipPath id="clip0"><rect x="531" y="368" width="30" height="30"/></clipPath></defs><g clip-path="url(#clip0)" transform="translate(-531 -368)"><path d="M545.595 383.45C544.807 383.953 543.768 383.8 543.159 383.09L542.052 381.788 537.327 387.56C536.671 388.362 535.489 388.48 534.687 387.824 533.885 387.168 533.767 385.986 534.423 385.184L539.58 378.884 538.146 377.198C537.502 376.387 537.637 375.208 538.448 374.564 539.221 373.95 540.338 374.04 541.002 374.771L541.992 375.935 545.418 371.75 532.875 371.75C531.839 371.75 531 370.911 531 369.875 531 368.839 531.839 368 532.875 368L551.625 368C552.661 368 553.5 368.839 553.5 369.875 553.5 370.911 552.661 371.75 551.625 371.75L550.263 371.75 544.464 378.839 546.015 380.66C546.684 381.453 546.583 382.638 545.79 383.306 545.728 383.358 545.663 383.406 545.595 383.45ZM554.898 382.001 560.898 395.501C561.226 396.483 560.696 397.545 559.714 397.873 558.855 398.16 557.915 397.793 557.478 397.001L556.638 395.111 549.738 395.111 548.898 397.001C548.414 397.917 547.28 398.267 546.364 397.784 545.542 397.349 545.162 396.378 545.472 395.501L551.472 382.001C551.987 381.055 553.171 380.705 554.117 381.22 554.447 381.399 554.718 381.671 554.898 382.001ZM553.188 387.368 551.4 391.376 554.97 391.376 553.188 387.368Z" fill="#E74A4A" fill-rule="evenodd"/></g></svg>