<!--?xml version="1.0" encoding="utf-8"?-->
<!-- Generator: Adobe Illustrator 18.1.1, SVG Export Plug-In . SVG Version: 6.00 Build 0)  -->

<svg version="1.1" id="_x32_" xmlns="http://www.w3.org/2000/svg" xmlns:xlink="http://www.w3.org/1999/xlink" x="0px" y="0px" viewBox="0 0 512 512" style="width: 256px; height: 256px; opacity: 1;" xml:space="preserve">
<style type="text/css">
	.st0{fill:#4B4B4B;}
</style>
<g>
	<path class="st0" d="M502.79,100.977c-1.273-2.76-4.918-5.406-7.424-7.262c-0.054-0.081-0.121-0.161-0.174-0.235
		c0.054,0.067,0.094,0.141,0.148,0.207c-2.962-2.191-6.7-3.671-11.136-4.14L313.428,71.329c-15.397-1.649-33.126,9.139-39.491,23.96
		L146.633,392.463c-2.64,6.138-2.882,12.054-1.193,16.985c0.523,14.197,13.776,25.159,26.761,26.546
		c2.238,0.241,4.476,0.476,6.714,0.717c12.516,1.334,25.019,2.667,37.522,4.007c33.956,3.618,67.9,7.236,101.843,10.868
		c17.609,1.876,34.815,5.802,49.917-4.563c16.751-11.464,24.095-30.412,34.305-55.425c38.285-93.816,65.1-160.168,104.993-253.248
		c2.251-5.28,4.623-10.432,4.502-16.449c0-0.007,0,0,0-0.007C511.714,113.995,508.083,107.335,502.79,100.977z M269.997,398.353
		c-3.109,6.814-11.712,11.74-19.149,10.982c-7.424-0.751-10.934-6.895-7.826-13.708c3.096-6.794,11.645-11.726,19.069-10.969
		C269.514,385.401,273.08,391.566,269.997,398.353z M365.421,368.316l-172.008-18.352l104.216-243.152l171.994,18.359
		L365.421,368.316z" style="fill: rgb(231, 74, 74);"></path>
	<path class="st0" d="M78.478,71.744L65.534,58.102c-25.984,24.61-46.084,56.168-56.926,92.866
		c-10.855,36.73-11.096,74.104-2.68,108.892l18.278-4.449c-7.665-31.692-7.438-65.648,2.452-99.11
		C36.534,122.86,54.813,94.183,78.478,71.744z" style="fill: rgb(231, 74, 74);"></path>
	<path class="st0" d="M76.575,171.055c-7.973,27.029-8.16,54.573-1.956,80.215l18.278-4.462c-5.44-22.553-5.28-46.68,1.729-70.426
		c7.022-23.766,20.007-44.128,36.838-60.068l-12.945-13.669C99.382,120.776,84.575,143.999,76.575,171.055z" style="fill: rgb(231, 74, 74);"></path>
	<path class="st0" d="M162.606,196.461c4.154-14.07,11.873-26.07,21.882-35.578l-12.945-13.655
		c-12.261,11.638-21.842,26.505-26.975,43.9c-5.132,17.38-5.186,35.082-1.206,51.498l18.278-4.442
		C158.412,224.784,158.452,210.519,162.606,196.461z" style="fill: rgb(231, 74, 74);"></path>
</g>
</svg>
